<svg xmlns="http://www.w3.org/2000/svg" xmlns:xlink="http://www.w3.org/1999/xlink" width="80" height="80.988" viewBox="0 0 80 80.988"><defs><style>.a{fill:#fa7268;}.b{fill:rgba(0,0,0,0);}.c{clip-path:url(#a);}</style><clipPath id="a"><path class="a" d="M35.293,68.722A45.25,45.25,0,0,0,42.3,34.186l-.075-.372a6.98,6.98,0,0,0-13.7,2.5l.125.631c.013.065.021.113.034.2a13.369,13.369,0,0,1-1.485.36l.213,1.249-1.485.254-.292-1.453A10.029,10.029,0,1,1,45.3,33.579l.254,1.262a48.446,48.446,0,0,1-7.742,35.607Zm-9.734-1.279a36.792,36.792,0,0,0,8.422-31.575l2.988-.6a39.853,39.853,0,0,1-9.12,34.2Zm20.713-.775A53.806,53.806,0,0,0,51.246,50l3.023.39a56.854,56.854,0,0,1-5.257,17.619ZM17.266,63.812a28.339,28.339,0,0,0,8.95-20.944l3.047-.033a31.4,31.4,0,0,1-9.915,23.208ZM10.5,58.447A19.8,19.8,0,0,0,17.5,40.117l-.178-.881A18.508,18.508,0,1,1,53.607,31.9l.19.945a57.866,57.866,0,0,1,.9,12.04l-3.047-.091a54.007,54.007,0,0,0-1.033-12.289l-.058-.291a15.458,15.458,0,0,0-30.383,5.629l.158.784a22.855,22.855,0,0,1-7.9,22.184Zm47.588.7a62.189,62.189,0,0,0,.992-27.591l-.148-.733a23.937,23.937,0,0,0-14.88-17.64l1.1-2.851A26.988,26.988,0,0,1,61.679,29.147l.243,1.072a65.266,65.266,0,0,1-.892,29.715ZM5.27,51.741A11.275,11.275,0,0,0,9.124,41.459l-.109-.543a27.178,27.178,0,0,1-.525-5.7l3.047.037a24.3,24.3,0,0,0,.322,4.286l.156.775A14.335,14.335,0,0,1,7.24,54.073ZM1,44.092.7,42.6A35.578,35.578,0,0,1,10.467,10.35l2.15,2.165A32.518,32.518,0,0,0,3.492,40.909l.217,1.08q.141.7.311,1.388l-1.513.375-.828.2-.617.153C1.059,44.1,1,44.092,1,44.092ZM67.9,36.224a32.676,32.676,0,0,0-.44-5.99l-.219-1.091A32.375,32.375,0,0,0,16.517,9.2L14.733,6.72A35.416,35.416,0,0,1,69.9,27.05l.35,1.485a35.8,35.8,0,0,1,.7,7.747ZM9.173,29.553A26.865,26.865,0,0,1,39.651,8.86l-.474,3.019A23.82,23.82,0,0,0,12.145,30.235Z" transform="translate(0 0)"/></clipPath></defs><rect class="b" width="80" height="80.988"/><g transform="translate(4.861 5.73)"><g transform="translate(0 0)"><path class="a" d="M35.293,68.722A45.25,45.25,0,0,0,42.3,34.186l-.075-.372a6.98,6.98,0,0,0-13.7,2.5l.125.631c.013.065.021.113.034.2a13.369,13.369,0,0,1-1.485.36l.213,1.249-1.485.254-.292-1.453A10.029,10.029,0,1,1,45.3,33.579l.254,1.262a48.446,48.446,0,0,1-7.742,35.607Zm-9.734-1.279a36.792,36.792,0,0,0,8.422-31.575l2.988-.6a39.853,39.853,0,0,1-9.12,34.2Zm20.713-.775A53.806,53.806,0,0,0,51.246,50l3.023.39a56.854,56.854,0,0,1-5.257,17.619ZM17.266,63.812a28.339,28.339,0,0,0,8.95-20.944l3.047-.033a31.4,31.4,0,0,1-9.915,23.208ZM10.5,58.447A19.8,19.8,0,0,0,17.5,40.117l-.178-.881A18.508,18.508,0,1,1,53.607,31.9l.19.945a57.866,57.866,0,0,1,.9,12.04l-3.047-.091a54.007,54.007,0,0,0-1.033-12.289l-.058-.291a15.458,15.458,0,0,0-30.383,5.629l.158.784a22.855,22.855,0,0,1-7.9,22.184Zm47.588.7a62.189,62.189,0,0,0,.992-27.591l-.148-.733a23.937,23.937,0,0,0-14.88-17.64l1.1-2.851A26.988,26.988,0,0,1,61.679,29.147l.243,1.072a65.266,65.266,0,0,1-.892,29.715ZM5.27,51.741A11.275,11.275,0,0,0,9.124,41.459l-.109-.543a27.178,27.178,0,0,1-.525-5.7l3.047.037a24.3,24.3,0,0,0,.322,4.286l.156.775A14.335,14.335,0,0,1,7.24,54.073ZM1,44.092.7,42.6A35.578,35.578,0,0,1,10.467,10.35l2.15,2.165A32.518,32.518,0,0,0,3.492,40.909l.217,1.08q.141.7.311,1.388l-1.513.375-.828.2-.617.153C1.059,44.1,1,44.092,1,44.092ZM67.9,36.224a32.676,32.676,0,0,0-.44-5.99l-.219-1.091A32.375,32.375,0,0,0,16.517,9.2L14.733,6.72A35.416,35.416,0,0,1,69.9,27.05l.35,1.485a35.8,35.8,0,0,1,.7,7.747ZM9.173,29.553A26.865,26.865,0,0,1,39.651,8.86l-.474,3.019A23.82,23.82,0,0,0,12.145,30.235Z" transform="translate(0 0)"/></g></g></svg>